<svg width="871" height="698" viewBox="0 0 871 698" fill="none" xmlns="http://www.w3.org/2000/svg">
<path d="M387.167 523.583C404.544 542.35 414.197 566.985 414.197 592.562V696.569L275.031 557.714L337.617 470.901L387.167 523.583Z" fill="#3B82F6"/>
<path d="M238.147 587.948L127.742 585.121L210.442 696.569H414.197L238.147 587.948Z" fill="#3B82F6"/>
<path d="M337.617 408.599L207.35 532.374L205.976 347.616L337.617 284.225V408.599Z" fill="#3B82F6"/>
<path d="M60.6597 470.901L207.35 532.374L122.846 386.871L0 345.052L60.6597 470.901Z" fill="#3B82F6"/>
<path d="M154.791 180.905L144.752 347.616L44.7688 210.745L99.2401 83.9655L154.791 180.905Z" fill="#3B82F6"/>
<path d="M337.617 242.417L144.752 347.616L206.761 210.745H337.617V242.417Z" fill="#3B82F6"/>
<path d="M381.682 121.839V0L210.442 70.5788L205.976 171.62L381.682 121.839Z" fill="#3B82F6"/>
<path d="M483.349 524.967C465.972 543.735 456.318 568.37 456.318 593.947V697.954L595.485 559.099L532.899 472.285L483.349 524.967Z" fill="#3B82F6"/>
<path d="M632.369 589.333L742.774 586.506L660.074 697.954H456.318L632.369 589.333Z" fill="#3B82F6"/>
<path d="M532.899 409.983L663.165 533.758L664.539 349.001L532.899 285.61V409.983Z" fill="#3B82F6"/>
<path d="M809.856 472.285L663.165 533.758L747.67 388.255L870.516 346.436L809.856 472.285Z" fill="#3B82F6"/>
<path d="M715.725 182.29L725.764 349.001L825.747 212.13L771.276 85.3503L715.725 182.29Z" fill="#3B82F6"/>
<path d="M532.899 243.801L725.764 349.001L663.754 212.13H532.899V243.801Z" fill="#3B82F6"/>
<path d="M488.833 123.224V1.38477L660.074 71.9636L664.539 173.005L488.833 123.224Z" fill="#3B82F6"/>
</svg>
