<svg preserveAspectRatio="xMidYMid meet" width="180" height="30" viewBox="0 0 637.235 101.914" fill="none" xmlns="http://www.w3.org/2000/svg">
<g id="BattleChain">
<path d="M0 100.287V23.1345H29.0813C49.1561 23.1345 57.5116 30.0793 57.5116 42.8838C57.5116 52.4328 53.2796 58.0755 45.0326 60.7883C54.0392 63.2841 59.0307 68.7097 59.0307 78.6928C59.0307 92.6909 49.9157 100.287 29.8409 100.287H0ZM29.5154 56.4478C40.9092 56.5563 47.0944 52.7584 47.0944 43.8604C47.0944 35.8305 41.8858 31.924 29.4068 31.924H10.3087V56.4478H29.5154ZM10.3087 65.1288V91.1718H28.6473C42.7539 91.1718 48.288 86.6142 48.288 77.9332C48.288 68.9267 41.7773 65.1288 28.8643 65.1288H10.3087Z" fill="white"/>
<path d="M117.707 84.878C113.367 94.4271 103.818 101.914 90.0364 101.914C76.6894 101.914 69.7446 95.4037 69.7446 85.4206C69.7446 78.9099 72.783 73.7013 77.7745 70.6629C79.5107 69.4693 81.2469 68.7097 83.0916 67.9501C86.8896 66.648 92.0982 65.5628 100.345 64.3692C111.305 62.7415 117.273 61.7649 117.273 55.9052C117.273 49.1775 112.824 44.9455 101.213 44.9455C88.9513 44.9455 82.9831 50.9137 82.4406 59.5947H71.6978C72.0234 55.0371 73.434 51.1307 75.7128 47.6583C80.4873 40.7135 88.9513 36.59 100.779 36.59C120.094 36.59 127.473 44.7285 127.473 57.5329V100.287H118.901L117.707 84.878ZM93.2918 93.559C100.454 93.559 106.422 90.7377 110.654 86.1802C114.994 81.6227 117.382 76.197 117.382 70.9885V66.4309C114.669 68.7097 109.46 69.9033 102.624 71.097C93.1833 72.5076 89.1683 73.5928 85.6959 75.8715C82.7661 77.7162 81.2469 80.429 81.2469 84.1185C81.2469 89.9781 85.1534 93.559 93.2918 93.559Z" fill="white"/>
<path d="M175.92 100.287H169.083C163.549 100.287 159.209 99.5272 156.17 98.1165C150.094 95.1867 147.924 88.676 147.924 76.3056V47.6583H135.77V38.6518H141.738C143.583 38.6518 144.994 38.5433 145.97 38.1092C147.815 37.3496 148.249 35.2879 148.575 30.6219C148.575 30.0793 148.575 29.1027 148.683 27.909C148.683 25.4133 148.792 22.809 148.792 21.9409H157.69V38.3262H175.92V47.6583H157.69V74.7864C157.69 79.3439 158.015 82.5993 158.775 84.7695C160.402 89.327 164.092 90.4122 171.471 90.4122H175.92V100.287Z" fill="white"/>
<path d="M224.03 100.287H217.193C211.659 100.287 207.319 99.5272 204.28 98.1165C198.204 95.1867 196.034 88.676 196.034 76.3056V47.6583H183.88V38.6518H189.848C191.693 38.6518 193.104 38.5433 194.08 38.1092C195.925 37.3496 196.359 35.2879 196.685 30.6219C196.685 30.0793 196.685 29.1027 196.793 27.909C196.793 25.4133 196.902 22.809 196.902 21.9409H205.8V38.3262H224.03V47.6583H205.8V74.7864C205.8 79.3439 206.125 82.5993 206.885 84.7695C208.512 89.327 212.202 90.4122 219.581 90.4122H224.03V100.287Z" fill="white"/>
<path d="M235.874 100.287V17.2748H246.4V100.287H235.874Z" fill="white"/>
<path d="M319.868 81.8397C316.287 94.6442 305.87 101.914 290.461 101.914C269.844 101.914 259.535 89.7611 259.535 70.4459V69.1437C259.535 62.633 260.837 56.9904 263.333 51.9988C268.433 42.2327 277.982 36.59 290.787 36.59C297.623 36.59 303.266 38.0007 307.606 40.9305C316.504 46.7902 320.736 56.6648 320.736 67.8416V72.8332H269.952C270.712 85.6376 278.091 93.0165 290.895 93.0165C299.902 93.0165 306.196 89.11 308.474 81.8397H319.868ZM290.895 45.1625C278.959 45.1625 271.363 52.4328 270.061 64.4777H310.211C309.342 52.6499 302.832 45.1625 290.895 45.1625Z" fill="white"/>
<path d="M398.019 72.5076C396.174 90.8462 385.757 101.914 365.14 101.914C343.654 101.914 331.718 89.4356 331.718 65.0203V59.3776C331.718 35.0709 344.305 21.8324 365.574 21.8324C384.238 21.8324 395.415 31.0559 397.477 49.72H386.408C384.998 37.8922 378.378 31.3814 365.574 31.3814C350.925 31.3814 342.569 41.2561 342.569 59.9202V64.5862C342.569 82.2737 350.599 91.8228 365.574 91.8228C378.704 91.8228 385.432 84.444 386.734 72.5076H398.019Z" fill="white"/>
<path d="M421.239 100.287H411.147V17.2748H421.239V50.8052C425.037 42.2327 432.633 36.59 443.701 36.59C459.652 36.59 467.465 46.5732 467.465 62.416V100.287H456.94V65.0203C456.94 53.6265 452.165 45.8136 439.903 45.8136C427.967 45.8136 421.239 54.8201 421.239 67.7331V100.287Z" fill="white"/>
<path d="M527.384 84.878C523.043 94.4271 513.494 101.914 499.713 101.914C486.366 101.914 479.421 95.4037 479.421 85.4206C479.421 78.9099 482.459 73.7013 487.451 70.6629C489.187 69.4693 490.923 68.7097 492.768 67.9501C496.566 66.648 501.775 65.5628 510.022 64.3692C520.981 62.7415 526.95 61.7649 526.95 55.9052C526.95 49.1775 522.501 44.9455 510.89 44.9455C498.628 44.9455 492.66 50.9137 492.117 59.5947H481.374C481.7 55.0371 483.111 51.1307 485.389 47.6583C490.164 40.7135 498.628 36.59 510.456 36.59C529.771 36.59 537.15 44.7285 537.15 57.5329V100.287H528.577L527.384 84.878ZM502.968 93.559C510.13 93.559 516.098 90.7377 520.33 86.1802C524.671 81.6227 527.058 76.197 527.058 70.9885V66.4309C524.345 68.7097 519.137 69.9033 512.3 71.097C502.86 72.5076 498.845 73.5928 495.372 75.8715C492.443 77.7162 490.923 80.429 490.923 84.1185C490.923 89.9781 494.83 93.559 502.968 93.559Z" fill="white"/>
<path d="M558.786 30.4048C553.36 30.4048 551.299 28.4516 551.299 22.9175C551.299 17.3833 553.795 15.4301 558.786 15.4301C563.778 15.4301 566.165 17.3833 566.165 22.9175C566.165 28.3431 563.778 30.4048 558.786 30.4048ZM553.252 100.287V38.3262H563.995V100.287H553.252Z" fill="white"/>
<path d="M591.009 100.287H580.375V38.3262H589.273L590.358 52.4328C593.722 42.8838 601.209 36.59 613.037 36.59C628.988 36.59 637.235 46.8987 637.235 62.633V100.287H626.601V65.0203C626.601 53.4095 621.935 45.8136 609.89 45.8136C597.628 45.8136 591.009 54.6031 591.009 67.8416V100.287Z" fill="white"/>
</g>
</svg>
